<?xml version="1.0"?>
<svg xmlns="http://www.w3.org/2000/svg" width="30" height="30" viewBox="0 0 30 17" fill="none">
<path d="M14.6422 10.5967L9.50782 7.90098L0.595255 3.22218C0.587119 3.21409 0.570849 3.2141 0.562713 3.2141C0.237288 3.06056 -0.096272 3.38379 0.0257622 3.70703L4.56706 15.2117L4.56788 15.2141C4.57276 15.2254 4.57683 15.2368 4.58171 15.2481C4.76801 15.6772 5.17479 15.9422 5.61737 16.0465C5.6548 16.0545 5.68157 16.0619 5.7265 16.0708C5.77122 16.0806 5.83378 16.0941 5.88747 16.0982C5.89642 16.099 5.90456 16.099 5.91351 16.0998H5.92002C5.92653 16.1006 5.93303 16.1006 5.93954 16.1014H5.94849C5.95419 16.1022 5.9607 16.1022 5.96639 16.1022H5.97697C5.98348 16.103 5.98998 16.103 5.99649 16.103V16.103C11.7481 16.7259 17.5502 16.7259 23.3018 16.103V16.103C23.3709 16.103 23.4384 16.0998 23.5035 16.0933C23.5247 16.0909 23.545 16.0885 23.5654 16.0861C23.5678 16.0852 23.5711 16.0852 23.5735 16.0844C23.5873 16.0828 23.6012 16.0804 23.615 16.078C23.6353 16.0755 23.6557 16.0715 23.676 16.0675C23.7167 16.0586 23.7352 16.0521 23.7904 16.0333C23.8456 16.0144 23.9372 15.9815 23.9946 15.954C24.0519 15.9265 24.0917 15.9002 24.1397 15.8703C24.1991 15.8331 24.2556 15.7951 24.3129 15.7524C24.3376 15.7336 24.3545 15.7216 24.3724 15.7046L24.3626 15.699L14.6422 10.5967Z" fill="#FF2B2B"/>
<path d="M28.7052 3.22187H28.6971L19.7812 7.90067L24.7375 15.2324L29.2674 3.70672V3.69056C29.3813 3.35116 29.0315 3.04409 28.7052 3.22187" fill="#7D353B"/>
<path d="M15.1173 0.998028C14.8895 0.667522 14.3933 0.667522 14.1736 0.998028L9.50781 7.90149L14.6422 10.5973L24.3724 15.7051C24.4335 15.6457 24.4825 15.5877 24.5343 15.5266C24.6075 15.4369 24.6759 15.3407 24.7361 15.2332L19.7799 7.90149L15.1173 0.998028Z" fill="#BD4043"/>
</svg>
